# xmcd
#
# Track frame offsets: 
#        183
#        18263
#        32440
#        48573
#        64885
#        81550
#        101118
#        119450
#        138873
#        160228
#        188753
#        209990
#        229653
#        249333
#        266790
#        283800
#        301975
#
# Disc length: 4287 seconds
#
# Revision: 3
# Processed by: cddbd v1.5.2PL0 Copyright (c) Steve Scherf et al.
# Submitted via: ExactAudioCopy v1.0b1
#
DISCID=fa10bd11
DTITLE=Michel Sardou - L'intégrale [CD 9)
DYEAR=1989
DGENRE=Chanson
TTITLE0=Une lettre à ma femme
TTITLE1=Road book
TTITLE2=Exit Dylan
TTITLE3=Voyageur immobile
TTITLE4=18 ans 18 jours
TTITLE5=1965
TTITLE6=Mélodie pour Elodie
TTITLE7=Les mots d'amour
TTITLE8=Chanteur de jazz
TTITLE9=Musulmanes
TTITLE10=Dessins de femmes
TTITLE11=Les routes de Rome
TTITLE12=Féminin comme
TTITLE13=Happy birthday
TTITLE14=Tout s'oublie
TTITLE15=Minuit moins dix
TTITLE16=Les prochains jours de Pearl Harbour
EXTD=
EXTT0=
EXTT1=
EXTT2=
EXTT3=
EXTT4=
EXTT5=
EXTT6=
EXTT7=
EXTT8=
EXTT9=
EXTT10=
EXTT11=
EXTT12=
EXTT13=
EXTT14=
EXTT15=
EXTT16=
PLAYORDER=
